<mxfile host="app.diagrams.net" modified="2023-12-04T10:22:29.846Z" agent="Mozilla/5.0 (Windows NT 10.0; Win64; x64) AppleWebKit/537.36 (KHTML, like Gecko) Chrome/119.0.0.0 Safari/537.36" version="22.1.5" etag="rRex5VagD2ssKSHXU-Vp" type="github">
  <diagram name="Page-1" id="EYf6KNml4khStRurP3lb">
    <mxGraphModel>
      <root>
        <mxCell id="0" />
        <mxCell id="1" parent="0" />
      </root>
    </mxGraphModel>
  </diagram>
</mxfile>
